<?xml version="1.0" encoding="utf-8"?>
<!-- Generator: Adobe Illustrator 26.3.1, SVG Export Plug-In . SVG Version: 6.00 Build 0)  -->
<svg version="1.1" xmlns="http://www.w3.org/2000/svg" xmlns:xlink="http://www.w3.org/1999/xlink" x="0px" y="0px"
	 viewBox="0 0 99.9 100.44" style="enable-background:new 0 0 99.9 100.44;" xml:space="preserve">
<style type="text/css">
	.st0{fill:#FFFFFF;}
</style>
<g id="Camada_2">
</g>
<g id="Camada_3">
	<g>
		<path class="st0" d="M49.71,82.08c-0.12-0.2-0.23-0.36-0.33-0.53c-4.3-7.46-8.61-14.92-12.91-22.39
			c-1.98-3.43-3.98-6.84-5.92-10.29c-1.92-3.42-2.81-7.13-2.68-11.04c0.34-9.8,6.93-18,16.4-20.52c2.42-0.64,4.86-0.75,7.34-0.56
			c3.75,0.29,7.17,1.51,10.25,3.61c5.02,3.41,8.18,8.13,9.28,14.1c0.93,5.04,0.26,9.9-2.31,14.42c-2.23,3.92-4.48,7.84-6.73,11.75
			c-4.03,7-8.08,14-12.12,21C49.92,81.77,49.82,81.9,49.71,82.08z M49.72,30.36c-4.46-0.07-8.18,3.58-8.18,8.17
			c0,4.43,3.7,8.1,8.17,8.12c4.49,0.01,8.16-3.66,8.15-8.14C57.84,33.9,54.3,30.36,49.72,30.36z"/>
		<path class="st0" d="M57.86,73.24c11.14,1.03,19.27,4.22,19.27,8.01c0,4.61-12.07,8.35-26.97,8.35s-26.97-3.74-26.97-8.35
			c0-3.68,7.68-6.8,18.35-7.92l8.16,12.69L57.86,73.24z"/>
	</g>
</g>
</svg>
