<?xml version="1.0" encoding="utf-8"?>
<!-- Generator: Adobe Illustrator 26.3.1, SVG Export Plug-In . SVG Version: 6.00 Build 0)  -->
<svg version="1.1" xmlns="http://www.w3.org/2000/svg" xmlns:xlink="http://www.w3.org/1999/xlink" x="0px" y="0px"
	 viewBox="0 0 99.9 100.44" style="enable-background:new 0 0 99.9 100.44;" xml:space="preserve">
<style type="text/css">
	.st0{fill:#FFFFFF;}
</style>
<g id="Camada_2">
</g>
<g id="Camada_3">
	<g>
		<path class="st0" d="M62.63,9.98c0,0.35,0,0.65,0,0.94c0,5.98,0,11.96,0,17.93c0,3.76,2.69,6.44,6.46,6.44c5.8,0,11.6,0,17.41,0
			c0.3,0,0.6,0,0.97,0c0.01,0.28,0.03,0.53,0.03,0.77c0,21.7,0,28.86,0,50.57c0,2.32-1.47,3.81-3.81,3.81c-22.58,0-45.16,0-67.74,0
			c-2.34,0-3.81-1.48-3.81-3.81c0-29.14,0-43.73,0-72.87c0-2.3,1.45-3.81,3.73-3.81c15.4-0.01,30.79-0.01,46.19,0
			C62.2,9.94,62.35,9.96,62.63,9.98z M49.82,79.48c6.15,0,12.31,0,18.46,0c0.33,0,0.65,0,0.98-0.04c1.12-0.14,2.01-0.97,2.24-2.05
			c0.23-1.11-0.25-2.31-1.28-2.81c-0.54-0.26-1.2-0.39-1.8-0.39c-12.41-0.02-24.81-0.02-37.22-0.01c-0.28,0-0.55,0.01-0.82,0.05
			c-1.43,0.23-2.35,1.36-2.27,2.81c0.08,1.48,1.24,2.45,2.96,2.45C37.32,79.49,43.57,79.48,49.82,79.48z M49.77,52.44
			c6.3,0,12.61,0,18.91,0c1.33,0,2.26-0.59,2.69-1.66c0.7-1.78-0.59-3.61-2.59-3.62c-6.38-0.01-12.76,0-19.14,0
			c-6.2,0-12.41-0.02-18.61,0.02c-0.64,0-1.35,0.22-1.89,0.56c-0.95,0.6-1.26,1.8-0.92,2.87c0.36,1.13,1.31,1.83,2.56,1.83
			C37.11,52.44,43.44,52.44,49.77,52.44z M49.82,60.69c-0.63,0-1.26,0-1.88,0c-5.65,0-11.3,0-16.95,0c-1.34,0-2.27,0.58-2.7,1.64
			c-0.73,1.83,0.6,3.64,2.7,3.65c12.56,0,25.11,0,37.67,0c0.13,0,0.25,0,0.38,0c1.48-0.1,2.55-1.29,2.5-2.77
			c-0.05-1.47-1.18-2.51-2.81-2.52C62.42,60.68,56.12,60.69,49.82,60.69z"/>
		<path class="st0" d="M86.66,31.83c-3.2,0-6.87,0-10.54,0c-2.76,0-5.53,0-8.29,0c-1.33,0-1.7-0.35-1.7-1.65c0-6.17,0-12.33,0-18.5
			c0-0.24,0-0.47,0-0.88C73.12,17.97,79.99,25,86.66,31.83z"/>
	</g>
</g>
</svg>
