<?xml version="1.0" encoding="utf-8"?>
<!-- Generator: Adobe Illustrator 26.3.1, SVG Export Plug-In . SVG Version: 6.00 Build 0)  -->
<svg version="1.1" xmlns="http://www.w3.org/2000/svg" xmlns:xlink="http://www.w3.org/1999/xlink" x="0px" y="0px"
	 viewBox="0 0 99.9 100.44" style="enable-background:new 0 0 99.9 100.44;" xml:space="preserve">
<style type="text/css">
	.st0{fill:#FFFFFF;}
</style>
<g id="Camada_2">
</g>
<g id="Camada_3">
	<path class="st0" d="M87.76,50.87L76.25,39.22V21.39c0-1.25-1.01-2.26-2.26-2.26h-5.48c-1.25,0-2.26,1.01-2.26,2.26v7.72
		L52.02,14.7c-1.21-1.23-3.19-1.23-4.4,0L11.88,50.87c-1.93,1.95-0.55,5.27,2.2,5.27h5.92v28.29c0,2.46,1.99,4.45,4.45,4.45h11.83
		c2.46,0,4.45-1.99,4.45-4.45V67.24H60.5v17.18c0,2.46,1.99,4.45,4.45,4.45h11.83c2.46,0,4.45-1.99,4.45-4.45V56.14h4.33
		C88.31,56.14,89.69,52.83,87.76,50.87z"/>
</g>
</svg>
