<?xml version="1.0" encoding="utf-8"?>
<!-- Generator: Adobe Illustrator 26.3.1, SVG Export Plug-In . SVG Version: 6.00 Build 0)  -->
<svg version="1.1" id="Layer_1" xmlns="http://www.w3.org/2000/svg" xmlns:xlink="http://www.w3.org/1999/xlink" x="0px" y="0px"
	 viewBox="0 0 960 301.5" style="enable-background:new 0 0 960 301.5;" xml:space="preserve">
<style type="text/css">
	.st0{fill-rule:evenodd;clip-rule:evenodd;fill:#32AADE;}
	.st1{fill-rule:evenodd;clip-rule:evenodd;fill:#2069B2;}
	.st2{fill:#FFFFFE;}
	.st3{fill:#2069B2;}
</style>
<polygon class="st0" points="383.13,251.46 905.16,251.46 905.16,192.73 448.48,196.08 "/>
<g>
	<g>
		<path class="st0" d="M576.97,84.99c-2.01,6.08-3.88,12.3-5.99,18.29c-5.61-2.47-11.93-4.32-20.28-4.32
			c-8.08,0-18.65,1.1-17.29,9.98c0.79,5.19,8.82,7.73,14.3,9.98c11.32,4.64,21.06,9.4,21.28,24.61c0.5,34.03-44.41,36.65-73.15,27.6
			c1.53-6.67,3.82-12.59,5.65-18.95c7.62,5.94,45.13,10.6,41.9-7.32c-1-5.51-8.92-7.91-15.63-10.64
			c-8.79-3.57-18.17-8.15-19.62-18.62C503.24,80.11,548.16,75.63,576.97,84.99z"/>
		<path class="st0" d="M596.59,82.33c21.28,0,42.56,0,63.84,0c-0.35,5.32-2.29,11.88-3.32,17.62c-13.3,0-26.6,0-39.9,0
			c-1.91,5.63-2.87,12.21-4.32,18.29c11.97,0.78,25.38,0.11,37.91,0.33c-1.18,6.02-2.32,12.09-3.99,17.62c-12.53,0-25.05,0-37.57,0
			c-1.89,6.43-2.88,13.75-4.66,20.28c13.85,0,27.71,0,41.56,0c-0.39,5.27-2.19,11.99-3.33,17.62c-22.06,0-44.11,0-66.17,0
			C583.2,143.43,589.4,112.39,596.59,82.33z"/>
		<path class="st0" d="M676.39,82.33c9.98,0,19.95,0,29.93,0c6.64,20.85,12.62,42.36,18.95,63.51c4.59-20.91,8.7-42.29,12.97-63.51
			c7.65,0,15.3,0,22.94,0c-5.68,30.01-12.7,61.56-19.29,91.77c-10.09,0-20.17,0-30.26,0c-6.37-21.01-12.94-41.81-18.95-63.18
			c-5.14,20.35-8.49,42.5-13.3,63.18c-7.65,0-15.3,0-22.94,0C663.04,143.47,669,112.19,676.39,82.33z"/>
		<path class="st0" d="M806.07,82.33c10.09,0,20.17,0,30.26,0c5.12,30.46,10.15,61.01,14.96,91.77c-8.2,0-16.4,0-24.61,0
			c-1.04-6.28-1.56-13.07-2.66-19.29c-10.97-0.78-23.39-0.11-34.91-0.33c-4.26,6.05-7.44,13.18-11.31,19.62c-8.65,0-17.29,0-25.94,0
			c-0.26-2.19,1.68-3.69,2.66-5.32c7.75-12.96,15.69-26.59,23.61-39.9C787.47,113.2,796.57,97.01,806.07,82.33z M798.42,137.2
			c7.76,0,15.52,0,23.28,0c-1.52-11.79-2.03-24.57-4.32-35.58C811.36,113.78,804.55,125.14,798.42,137.2z"/>
		<path class="st0" d="M881.22,82.33c7.98,0,15.96,0,23.94,0c-5.92,30.99-12.45,61.37-18.95,91.77c-8.2,0-16.4,0-24.61,0
			c6.29-30.29,12.42-60.73,18.95-90.78C880.54,82.76,880.8,82.47,881.22,82.33z"/>
		<path class="st1" d="M199.56,119.91c-0.91,3.85-2.35,7.18-3.33,10.97c-3.9-2.08-22.94-5.19-22.94,2.66c0,3.73,5.36,5.28,8.65,6.65
			c6.94,2.9,12.82,5.97,12.97,14.96c0.3,18.96-25.4,22.94-44.22,16.63c1.05-3.83,2.41-7.35,3.33-11.31
			c5.66,3.3,25.22,6.08,25.6-2.99c0.17-4.13-5.19-6.26-8.65-7.65c-6.58-2.64-12.48-4.96-12.97-12.97
			C156.81,117.6,181.73,114.27,199.56,119.91z"/>
		<path class="st1" d="M444.62,117.91c10.88-1.07,20.35,1.49,24.94,7.98c7.44,10.53,4.43,31.25-4.99,40.57
			c-12.33,12.19-40.13,10.79-46.22-5.32c-4.32-11.43,1.41-28.12,6.32-33.92C428.87,122.26,435.64,118.79,444.62,117.91z
			 M432.32,153.82c0.9,7.28,7.52,11.71,14.96,8.98c10.73-3.94,18.9-36.89-1-33.92C436.92,130.28,430.86,142.03,432.32,153.82z"/>
		<path class="st1" d="M90.49,118.58c-3.46,18.71-7.55,36.79-11.3,55.2c-4.99,0-9.98,0-14.96,0c3.9-18.38,7.45-37.11,11.64-55.2
			C80.74,118.58,85.62,118.58,90.49,118.58z"/>
		<path class="st1" d="M120.09,118.58c3.5,12.79,7.57,25.02,10.97,37.91c3.03-12.27,5.08-25.51,7.98-37.91c4.66,0,9.31,0,13.97,0
			c-3.87,18.41-7.88,36.68-11.64,55.2c-6.1,0-12.19,0-18.29,0c-4.13-12.27-7.51-25.29-11.64-37.57
			c-2.77,12.31-5.18,24.97-7.65,37.57c-4.66,0-9.31,0-13.96,0c3.8-18.59,7.43-37.35,11.97-55.2
			C107.89,118.58,113.99,118.58,120.09,118.58z"/>
		<path class="st1" d="M249.1,118.58c-0.62,3.82-1.49,7.38-2.33,10.97c-4.43,0-8.87,0-13.3,0c-3.78,14.18-6.52,29.39-9.64,44.23
			c-4.99,0-9.98,0-14.96,0c2.56-15.06,6.22-29.02,8.98-43.89c-3.77-0.77-8.98-0.11-13.3-0.33c0.4-4.04,1.38-7.49,2.33-10.97
			C220.95,118.58,235.03,118.58,249.1,118.58z"/>
		<path class="st1" d="M270.05,118.58c-3.57,18.6-7.65,36.69-11.31,55.2c-4.99,0-9.98,0-14.96,0c3.8-18.48,7.35-37.21,11.64-55.2
			C260.3,118.58,265.17,118.58,270.05,118.58z"/>
		<path class="st1" d="M319.26,118.58c-0.79,3.64-1.64,7.23-2.33,10.97c-4.54,0-9.09,0-13.63,0c-3.48,14.47-6.22,29.69-9.64,44.23
			c-4.99,0-9.98,0-14.96,0c3.06-14.68,6.2-29.27,9.31-43.89c-3.88-0.77-9.2-0.11-13.63-0.33c0.93-3.61,1.29-7.79,2.66-10.97
			C291.11,118.58,305.19,118.58,319.26,118.58z"/>
		<path class="st1" d="M324.58,118.58c4.99,0,9.98,0,14.96,0c-2.41,9.42-4.09,19.39-6.32,29.93c-0.75,3.53-2.05,7.01-1,10.31
			c1.18,3.71,5.81,5.64,10.31,4.32c6.93-2.04,7.89-11.93,9.64-20.28c1.86-8.87,4.18-16.64,5.32-24.27c4.99,0,9.98,0,14.96,0
			c-6.36,20.9-3.95,53.32-28.6,55.86c-7,0.72-16.71-0.49-21.28-3.99c-13.11-10.03,0.12-36.58,1.66-50.87
			C324.22,119.1,324.2,118.63,324.58,118.58z"/>
		<path class="st1" d="M420.02,118.58c-0.89,3.54-1.73,7.13-2.33,10.97c-4.54,0-9.09,0-13.63,0c-3.56,14.4-6.31,29.6-9.64,44.22
			c-4.99,0-9.98,0-14.96,0c2.96-14.89,6.23-29.46,9.31-44.23c-4.54,0-9.09,0-13.63,0c0.83-3.71,1.23-7.85,2.66-10.97
			C391.86,118.58,405.94,118.58,420.02,118.58z"/>
		<path class="st1" d="M905.16,199.38c-134.18,0-291.38,0-426.62,0c-9.74,0-21.82-1.41-28.93,1c-8.3,2.81-14.28,8.31-18.29,15.3
			c-5.97,10.4-12.16,20.8-20.95,29.59c-7.95,7.94-25.61,5.99-32.92,5.99c-109.14,0-212.54,0.36-320.35,0c0.22-2.89-0.12-4.67,0-7.65
			c0,0,288.86-0.49,292.02-0.43c3.33,0.06,6.54-0.01,9.38-0.56c8.36-1.61,15.75-6.32,20.62-11.31c7.88-8.07,10.94-19.31,17.96-27.27
			c4.58-5.19,12.94-10.46,21.95-11.3c9.34-0.88,19.5,0,29.26,0c143.3,0,313.39,0,456.88,0V199.38z"/>
	</g>
</g>
<g>
	<path class="st2" d="M462.94,226.2l-9.24,0l-1.19,5.61l10.4-0.01l-0.92,4.21l-15.96,0.01l4.93-23.07l15.42-0.01l-0.93,4.21l-9.82,0
		l-1.08,4.89l9.31,0L462.94,226.2z"/>
	<path class="st2" d="M470.94,212.95l15.27-0.01l-0.93,4.21l-9.66,0l-1.2,5.41l9.08,0l-0.92,4.14l-9.04,0l-1.97,9.31l-5.57,0
		L470.94,212.95z"/>
	<path class="st2" d="M496.14,212.94l-4.93,23.07l-5.57,0l4.93-23.07L496.14,212.94z"/>
	<path class="st2" d="M515.86,235.38c-1.39,0.55-3.71,0.99-6.84,1c-6.92,0-11.52-3.69-11.52-9.78c0-5.24,2.62-9.28,6.56-11.61
		c2.71-1.64,5.87-2.43,9.55-2.43c2.82,0,4.95,0.58,5.72,0.96l-1.54,4c-0.74-0.34-2.47-0.75-4.72-0.75c-2.24,0-4.37,0.62-5.95,1.78
		c-2.16,1.61-3.59,4.25-3.59,7.46c0,3.7,2.36,6.16,6.92,6.16c1.86,0,3.67-0.28,4.95-0.76L515.86,235.38z"/>
	<path class="st2" d="M529.26,212.92l-4.93,23.07l-5.57,0l4.93-23.07L529.26,212.92z"/>
	<path class="st2" d="M546.39,226.16l-9.24,0l-1.2,5.61l10.4-0.01l-0.93,4.21l-15.96,0.01l4.93-23.07l15.42-0.01l-0.93,4.21l-9.82,0
		l-1.08,4.89l9.32,0L546.39,226.16z M545.06,207.37l3.17,4.31l-3.79,0l-1.59-2.26h-0.08l-2.2,2.26l-4.18,0l4.6-4.31L545.06,207.37z"
		/>
	<path class="st2" d="M549.45,235.98l4.93-23.07l6.53,0l3.45,8.79c1.04,2.94,1.74,5.34,2.36,7.87h0.12c0.11-2.36,0.5-4.89,1.19-8.28
		l1.77-8.39l5.22,0l-4.94,23.07l-5.76,0l-3.64-9.2c-1.16-3.15-1.86-5.24-2.55-8.04h-0.12c-0.27,2.26-0.89,5.51-1.66,9.17l-1.73,8.08
		L549.45,235.98z"/>
	<path class="st2" d="M594.71,235.34c-1.39,0.55-3.71,0.99-6.84,1c-6.92,0-11.52-3.69-11.52-9.78c0-5.24,2.62-9.28,6.56-11.61
		c2.7-1.64,5.87-2.43,9.55-2.43c2.82,0,4.95,0.58,5.72,0.96l-1.54,4c-0.74-0.34-2.47-0.75-4.72-0.75c-2.24,0-4.37,0.62-5.95,1.78
		c-2.16,1.61-3.59,4.25-3.59,7.46c0,3.7,2.36,6.16,6.92,6.16c1.86,0,3.67-0.28,4.95-0.76L594.71,235.34z"/>
	<path class="st2" d="M608.11,212.88l-4.94,23.07l-5.57,0l4.93-23.07L608.11,212.88z"/>
	<path class="st2" d="M615.5,229.95l-3.05,5.99l-5.95,0l12.7-23.07l7.15,0l3.03,23.06l-5.84,0l-0.54-5.99L615.5,229.95z
		 M622.76,226.18l-0.5-4.96c-0.12-1.27-0.23-3.11-0.35-4.52h-0.12c-0.66,1.4-1.39,3.18-2.08,4.52l-2.55,4.96L622.76,226.18z"/>
	<path class="st2" d="M650.98,236.3c-6.76,0-10.55-4.24-10.56-9.61c0-4.14,1.73-8.21,4.71-10.85c2.43-2.09,5.8-3.36,9.58-3.36
		c6.88,0,10.52,4.1,10.52,9.61c0,4.17-1.66,8.28-4.59,10.85c-2.4,2.12-5.72,3.36-9.62,3.36L650.98,236.3z M651.75,232.19
		c4.48,0,7.53-5.62,7.53-9.96c0-2.88-1.16-5.65-5.26-5.64c-4.68,0-7.73,5.55-7.72,9.93c0,3.25,1.67,5.68,5.41,5.68H651.75z"/>
	<path class="st2" d="M671.41,213.29c1.66-0.38,4.25-0.58,6.76-0.58c2.36,0,5.02,0.34,6.92,1.54c1.78,1.03,2.82,2.67,2.82,4.89
		c0,2.87-1.5,5.1-3.51,6.47c-2.12,1.47-5.18,2.16-8.35,2.16c-0.93,0-1.7-0.1-2.28-0.13l-1.77,8.28l-5.45,0L671.41,213.29z
		 M674.63,223.59c0.62,0.1,1.2,0.17,2.16,0.17c3.32,0,5.53-1.89,5.52-4.21c0-2.19-1.78-2.91-3.94-2.91c-1.04,0-1.82,0.07-2.28,0.14
		L674.63,223.59z"/>
	<path class="st2" d="M705.27,226.07l-9.24,0l-1.2,5.61l10.4-0.01l-0.93,4.21l-15.96,0.01l4.94-23.07l15.42-0.01l-0.93,4.21l-9.82,0
		l-1.08,4.89l9.32,0L705.27,226.07z"/>
	<path class="st2" d="M713.23,213.27c1.74-0.38,4.37-0.58,6.96-0.59c2.47,0,5.03,0.31,6.84,1.33c1.7,0.89,2.9,2.33,2.9,4.48
		c0,3.42-2.55,5.55-5.91,6.51v0.1c1.55,0.62,2.24,2.12,2.48,4.21c0.35,2.6,0.54,5.61,1.01,6.57l-5.72,0
		c-0.23-0.62-0.5-2.6-0.74-5.44c-0.27-2.81-1.35-3.66-3.56-3.66l-1.7,0l-1.93,9.1l-5.49,0L713.23,213.27z M716.63,223.09l2.28,0
		c3.01,0,5.22-1.61,5.22-3.87c0-1.85-1.74-2.67-3.98-2.67c-1.04,0-1.7,0.07-2.16,0.17L716.63,223.09z"/>
	<path class="st2" d="M738.43,229.88l-3.05,5.99l-5.95,0l12.7-23.07l7.15,0l3.03,23.06l-5.84,0l-0.54-5.99L738.43,229.88z
		 M745.69,226.12l-0.51-4.96c-0.12-1.27-0.23-3.11-0.35-4.52h-0.12c-0.66,1.4-1.39,3.18-2.09,4.52l-2.55,4.96L745.69,226.12z"/>
	<path class="st2" d="M773.57,235.24c-1.39,0.55-3.71,1-6.84,1c-6.92,0-11.52-3.69-11.52-9.78c0-5.24,2.62-9.28,6.56-11.6
		c2.71-1.64,5.87-2.43,9.55-2.44c2.82,0,4.95,0.58,5.72,0.96l-1.54,4c-0.73-0.34-2.47-0.75-4.72-0.75c-2.24,0-4.37,0.62-5.95,1.78
		c-2.16,1.61-3.59,4.25-3.59,7.46c0,3.7,2.36,6.16,6.92,6.16c1.86,0,3.67-0.28,4.95-0.76L773.57,235.24z"/>
	<path class="st2" d="M786.97,212.78l-4.94,23.07l-5.57,0l4.93-23.07L786.97,212.78z"/>
	<path class="st2" d="M798.85,236.22c-6.76,0-10.55-4.24-10.56-9.61c0-4.14,1.74-8.21,4.71-10.85c2.43-2.09,5.8-3.36,9.58-3.36
		c6.88,0,10.52,4.1,10.52,9.61c0,4.18-1.66,8.28-4.59,10.85c-2.39,2.12-5.72,3.36-9.62,3.36H798.85z M799.62,232.11
		c4.48,0,7.53-5.62,7.53-9.96c0-2.88-1.16-5.65-5.26-5.64c-4.68,0-7.73,5.55-7.72,9.93c0,3.25,1.67,5.68,5.42,5.68H799.62z"/>
	<path class="st2" d="M814.42,235.83l4.93-23.07l6.53,0l3.45,8.79c1.04,2.94,1.74,5.34,2.36,7.87h0.12c0.11-2.36,0.5-4.89,1.19-8.28
		l1.77-8.39l5.22,0l-4.93,23.07l-5.76,0l-3.64-9.2c-1.16-3.15-1.86-5.24-2.55-8.04H823c-0.27,2.26-0.89,5.51-1.66,9.17l-1.74,8.08
		L814.42,235.83z"/>
	<path class="st2" d="M847.35,229.83l-3.05,5.99l-5.95,0l12.7-23.07l7.15,0l3.03,23.06l-5.84,0l-0.54-5.99L847.35,229.83z
		 M854.62,226.06l-0.51-4.96c-0.12-1.27-0.23-3.11-0.35-4.52l-0.12,0c-0.66,1.4-1.39,3.18-2.08,4.52l-2.55,4.96L854.62,226.06z"/>
	<path class="st2" d="M868.99,212.74l5.57,0l-4.01,18.76l10.01,0l-0.93,4.31l-15.58,0.01L868.99,212.74z"/>
</g>
<g>
	<path class="st3" d="M59.67,222.21l4.68-28.51h9.14c2.06,0,3.62,0.14,4.66,0.41c1.46,0.38,2.64,1.06,3.56,2.04
		c1.19,1.27,1.97,2.89,2.34,4.87c0.37,1.98,0.35,4.24-0.07,6.78c-0.36,2.17-0.91,4.08-1.65,5.76c-0.74,1.67-1.58,3.06-2.49,4.15
		c-0.92,1.1-1.86,1.96-2.84,2.59c-0.98,0.63-2.11,1.11-3.4,1.43c-1.29,0.32-2.74,0.49-4.34,0.49H59.67z M63.73,218.85h5.66
		c1.75,0,3.15-0.18,4.2-0.53c1.05-0.35,1.93-0.84,2.62-1.48c0.98-0.89,1.83-2.1,2.54-3.61c0.71-1.51,1.25-3.34,1.6-5.49
		c0.49-2.98,0.41-5.27-0.24-6.88c-0.65-1.6-1.58-2.67-2.79-3.22c-0.88-0.39-2.36-0.58-4.45-0.58h-5.57L63.73,218.85z"/>
	<path class="st3" d="M86.51,222.21l4.68-28.51h19.18l-0.55,3.36H94.14l-1.43,8.73h14.68l-0.55,3.35H92.16l-1.59,9.71h16.29
		l-0.55,3.36H86.51z"/>
	<path class="st3" d="M127.53,222.21l4.13-25.15h-8.74l0.55-3.36h21.03l-0.55,3.36h-8.78l-4.12,25.15H127.53z"/>
	<path class="st3" d="M143.49,222.21l4.68-28.51h19.18l-0.55,3.36h-15.67l-1.43,8.73h14.68l-0.55,3.35h-14.68l-1.59,9.71h16.29
		l-0.55,3.36H143.49z"/>
	<path class="st3" d="M188.71,212.21l3.35,0.95c-1.24,3.1-2.96,5.46-5.13,7.09c-2.18,1.63-4.65,2.44-7.41,2.44
		c-2.86,0-5.08-0.63-6.67-1.88c-1.59-1.25-2.65-3.06-3.2-5.44c-0.55-2.37-0.6-4.92-0.15-7.64c0.49-2.97,1.44-5.56,2.86-7.77
		c1.42-2.21,3.2-3.89,5.33-5.04c2.14-1.15,4.37-1.72,6.71-1.72c2.65,0,4.77,0.73,6.34,2.18c1.57,1.45,2.5,3.49,2.78,6.13l-3.6,0.88
		c-0.28-2.07-0.92-3.58-1.93-4.53c-1.02-0.95-2.41-1.42-4.18-1.42c-2.04,0-3.83,0.53-5.37,1.58c-1.54,1.05-2.74,2.46-3.58,4.23
		c-0.85,1.77-1.42,3.59-1.73,5.47c-0.4,2.42-0.42,4.54-0.06,6.35c0.36,1.81,1.16,3.16,2.4,4.06c1.24,0.89,2.67,1.34,4.29,1.34
		c1.97,0,3.73-0.61,5.29-1.83C186.61,216.42,187.83,214.61,188.71,212.21z"/>
	<path class="st3" d="M194.87,222.21l4.68-28.51h3.6l10.26,22.39l3.67-22.39h3.37l-4.68,28.51h-3.6l-10.26-22.4l-3.68,22.4H194.87z"
		/>
	<path class="st3" d="M222.88,208.32c0.78-4.73,2.57-8.44,5.37-11.11c2.8-2.68,6.08-4.02,9.82-4.02c2.45,0,4.55,0.63,6.31,1.89
		c1.76,1.26,2.97,3.01,3.63,5.26c0.66,2.25,0.76,4.8,0.29,7.65c-0.47,2.89-1.44,5.48-2.9,7.76c-1.46,2.28-3.28,4.01-5.47,5.18
		c-2.18,1.17-4.43,1.76-6.73,1.76c-2.5,0-4.62-0.65-6.38-1.95c-1.75-1.3-2.95-3.07-3.6-5.31
		C222.58,213.2,222.47,210.83,222.88,208.32z M226.49,208.38c-0.56,3.44-0.15,6.14,1.25,8.12c1.39,1.98,3.39,2.97,5.98,2.97
		c2.64,0,4.98-1,7.01-3c2.04-2,3.35-4.83,3.96-8.5c0.38-2.32,0.35-4.35-0.1-6.08c-0.45-1.73-1.29-3.07-2.54-4.03
		c-1.25-0.95-2.75-1.43-4.5-1.43c-2.49,0-4.77,0.92-6.87,2.75C228.59,201.03,227.19,204.09,226.49,208.38z"/>
	<path class="st3" d="M250.35,222.21l4.68-28.51h3.51l-4.13,25.15h13.07l-0.55,3.36H250.35z"/>
	<path class="st3" d="M272.31,208.33c0.78-4.73,2.57-8.44,5.37-11.12c2.8-2.68,6.08-4.02,9.82-4.02c2.45,0,4.55,0.63,6.31,1.89
		c1.76,1.26,2.97,3.01,3.63,5.26c0.66,2.25,0.76,4.8,0.29,7.65c-0.47,2.89-1.44,5.48-2.9,7.76c-1.46,2.28-3.28,4.01-5.46,5.18
		c-2.18,1.17-4.43,1.76-6.73,1.76c-2.5,0-4.62-0.65-6.38-1.95c-1.75-1.3-2.95-3.07-3.6-5.31
		C272.02,213.2,271.9,210.83,272.31,208.33z M275.92,208.38c-0.56,3.44-0.15,6.14,1.25,8.12c1.39,1.98,3.39,2.97,5.98,2.97
		c2.64,0,4.98-1,7.01-3c2.03-2,3.35-4.83,3.95-8.5c0.38-2.32,0.35-4.35-0.1-6.08c-0.45-1.73-1.29-3.07-2.54-4.03
		c-1.25-0.95-2.75-1.43-4.5-1.43c-2.49,0-4.77,0.92-6.87,2.75C278.03,201.03,276.63,204.09,275.92,208.38z"/>
	<path class="st3" d="M314.18,211.03l0.55-3.35l11.24-0.02l-2.47,15.03l-3.02,0.14c-0.07,0.04,0.32-2.38,0.32-2.38
		c-0.82,0.44-1.64,0.82-2.46,1.13c-1.96,0.75-3.9,1.12-5.83,1.12c-2.61,0-4.88-0.6-6.81-1.8c-1.93-1.2-3.25-2.93-3.97-5.2
		c-0.71-2.27-0.84-4.8-0.38-7.6c0.46-2.77,1.42-5.36,2.89-7.77c1.47-2.4,3.32-4.19,5.54-5.36c2.22-1.17,4.65-1.75,7.29-1.75
		c1.92,0,3.6,0.33,5.04,1c1.44,0.67,2.5,1.6,3.19,2.79c0.69,1.19,1.1,2.75,1.24,4.67l-3.32,0.93c-0.16-1.45-0.47-2.59-0.92-3.42
		c-0.45-0.83-1.19-1.49-2.21-1.99c-1.02-0.5-2.19-0.75-3.53-0.75c-1.6,0-3.03,0.26-4.29,0.79c-1.26,0.53-2.31,1.22-3.17,2.07
		c-0.86,0.86-1.57,1.8-2.14,2.82c-0.97,1.76-1.62,3.68-1.96,5.74c-0.42,2.54-0.36,4.67,0.17,6.38c0.53,1.71,1.51,2.98,2.93,3.81
		c1.42,0.83,3,1.25,4.75,1.25c1.52,0,3.06-0.31,4.61-0.94c1.55-0.63,2.76-1.3,3.62-2.01l0.87-5.31H314.18z"/>
	<path class="st3" d="M329.35,222.21l4.68-28.51h3.51l-4.68,28.51H329.35z"/>
	<path class="st3" d="M336.14,222.21l14.87-28.51h3.78l6.18,28.51h-4l-1.68-8.63H344.2l-4.33,8.63H336.14z M345.71,210.5h8.99
		l-1.47-7.9c-0.45-2.4-0.76-4.37-0.91-5.91c-0.64,1.83-1.41,3.64-2.32,5.45L345.71,210.5z"/>
</g>
</svg>
