<?xml version="1.0" encoding="utf-8"?>
<!-- Generator: Adobe Illustrator 26.3.1, SVG Export Plug-In . SVG Version: 6.00 Build 0)  -->
<svg version="1.1" xmlns="http://www.w3.org/2000/svg" xmlns:xlink="http://www.w3.org/1999/xlink" x="0px" y="0px"
	 viewBox="0 0 99.9 100.44" style="enable-background:new 0 0 99.9 100.44;" xml:space="preserve">
<style type="text/css">
	.st0{fill:#FFFFFF;}
</style>
<g id="Camada_2">
</g>
<g id="Camada_3">
	<g>
		<path class="st0" d="M88.18,63.55c-0.37,2.82-1.87,4.95-3.86,6.92C78.75,76,73.18,81.53,67.8,87.25
			c-4.84,5.15-10.56,7.8-17.65,7.51c-4.49-0.18-9.01,0.08-13.47-0.39c-7.98-0.83-15.24-7.91-15.91-15.93
			c-0.55-6.53-0.47-13.16-0.15-19.72c0.27-5.47,4.79-9.15,10.26-9.14c8.71,0.01,17.42,0.26,26.12,0c7.27-0.22,12.5,5.23,11.96,12.08
			c-0.06,0.8-0.01,1.61-0.01,2.48c-2.5-0.5-4.88-1.14-7.29-1.42c-6.89-0.8-14.51,2.12-16,11.82c-0.07,0.44-0.01,0.9-0.01,1.44
			c0.61,0,1.16,0,1.74,0c0.26-1.2,0.43-2.4,0.78-3.53c1.76-5.65,7.02-8.75,13.56-7.73c2.57,0.4,5.04,1.45,7.58,2.09
			c0.56,0.14,1.42,0.01,1.85-0.35c1.98-1.68,3.84-3.49,5.76-5.23c0.77-0.69,1.54-1.42,2.41-1.96c3.94-2.47,7.19-1.12,8.83,3.6
			C88.18,63.09,88.18,63.32,88.18,63.55z"/>
		<path class="st0" d="M52.17,5.67c3.09,1.24,4.09,3.59,4.06,6.83c-0.1,10.86-0.04,21.72-0.04,32.57c0,0.68,0,1.36,0,2.12
			c-3.58,0-6.96,0-10.59,0c0-0.62,0-1.23,0-1.84c0-10.97,0.06-21.95-0.03-32.92c-0.03-3.26,1.07-5.57,4.18-6.76
			C50.56,5.67,51.37,5.67,52.17,5.67z"/>
		<path class="st0" d="M58.34,47.2c0-2.14,0-4.15,0-6.15c0-7.21-0.02-14.42,0.02-21.63c0.01-2.73,1.9-4.83,4.41-5.12
			c2.81-0.33,5.04,1.09,5.81,3.74c0.16,0.54,0.2,1.13,0.2,1.7c0.01,9.75,0.02,19.5-0.02,29.25c0,0.62-0.31,1.58-0.73,1.75
			c-0.45,0.18-1.3-0.26-1.81-0.65C63.95,48.36,61.42,47.4,58.34,47.2z"/>
		<path class="st0" d="M43.48,47.18c-3.6,0-6.98,0-10.45,0c-0.03-0.59-0.09-1.1-0.09-1.61c-0.01-8.54-0.02-17.09,0-25.63
			c0.01-4.07,2.94-6.54,6.59-5.63c2.16,0.54,3.88,2.36,3.9,4.72C43.53,28.36,43.48,37.71,43.48,47.18z"/>
		<path class="st0" d="M30.86,47.21c-3.26,0.17-5.92,1.25-8.25,3.22c-0.35,0.3-1.07,0.52-1.43,0.35c-0.37-0.17-0.73-0.84-0.73-1.3
			c-0.04-7.04-0.08-14.08,0-21.11c0.03-3.03,2.23-5.2,5.06-5.34c2.58-0.12,5.18,1.72,5.28,4.46C31.02,34.04,30.86,40.6,30.86,47.21z
			"/>
	</g>
</g>
</svg>
