<?xml version="1.0" encoding="utf-8"?>
<!-- Generator: Adobe Illustrator 26.3.1, SVG Export Plug-In . SVG Version: 6.00 Build 0)  -->
<svg version="1.1" xmlns="http://www.w3.org/2000/svg" xmlns:xlink="http://www.w3.org/1999/xlink" x="0px" y="0px"
	 viewBox="0 0 99.9 100.44" style="enable-background:new 0 0 99.9 100.44;" xml:space="preserve">
<style type="text/css">
	.st0{fill:#FFFFFF;}
</style>
<g id="Camada_2">
</g>
<g id="Camada_3">
	<g>
		<path class="st0" d="M5.68,68.41c0.22-1.11,0.41-2.22,0.66-3.32c1.39-6.03,4.71-10.64,10.12-13.72c0.62-0.35,1.25-0.7,1.89-1.06
			c-5.72-6.98-6.48-13.35-2.34-18.82c3.8-5.01,10.24-6.71,16.15-4.1c-2.73,7.86-1.38,15.12,4.01,21.69
			c-10.45,6.6-15.63,15.98-15.46,28.59c-5.84-1.35-12.17-1.09-15.03-7.78C5.68,69.39,5.68,68.9,5.68,68.41z"/>
		<path class="st0" d="M62.43,49.84c8.69,4.17,14.12,10.7,16.39,19.79c0.32,1.26,0.55,2.55,0.7,3.84c0.57,4.95-0.88,7.65-5.45,10.12
			c-5.05,2.73-10.59,3.72-16.2,4.16c-8.33,0.66-16.62,0.37-24.67-2.22c-9.59-3.08-11.87-7.33-9.1-16.94
			c2.3-7.99,7.1-13.98,14.49-17.87c0.43-0.23,0.85-0.47,1.27-0.71c0.05-0.03,0.05-0.15,0.07-0.23c-8.83-10.73-9.06-20.84-0.63-28.39
			c7.1-6.36,18.25-5.9,25.02,0.95C70.55,28.63,72.46,40.89,62.43,49.84z"/>
		<path class="st0" d="M83.35,50.26c0.72,0.41,1.42,0.78,2.1,1.19c6.57,3.97,10.02,9.77,10.35,17.45c0.09,2.09-0.73,3.66-2.37,4.79
			c-3.36,2.31-7.15,3.28-11.35,3.6c-0.19-12.17-5-21.67-15.6-28.18c5.31-6.56,6.86-13.82,3.92-21.81c4.39-2.8,11.64-0.42,14.88,3.57
			C89.99,36.68,89.38,43.66,83.35,50.26z"/>
	</g>
</g>
</svg>
