<?xml version="1.0" encoding="utf-8"?>
<!-- Generator: Adobe Illustrator 26.3.1, SVG Export Plug-In . SVG Version: 6.00 Build 0)  -->
<svg version="1.1" xmlns="http://www.w3.org/2000/svg" xmlns:xlink="http://www.w3.org/1999/xlink" x="0px" y="0px"
	 viewBox="0 0 99.9 100.44" style="enable-background:new 0 0 99.9 100.44;" xml:space="preserve">
<style type="text/css">
	.st0{fill:#FFFFFF;}
</style>
<g id="Camada_2">
</g>
<g id="Camada_3">
	<path class="st0" d="M93.86,36.12c-0.01-3.56-2.58-5.37-5.2-3.61c-5.1,3.44-10.19,6.88-15.28,10.33
		c-1.64-9.3-9.6-16.06-19.17-16.06c-14.71,0-14.23,0-28.94,0.01c-0.79,0-1.58,0.04-2.37,0.13c-9.37,1.03-16.85,9.04-17.06,18.46
		c-0.14,6.26-0.04,12.53-0.03,18.8c0,0.95,0.07,1.91,0.19,2.85c1.25,9.44,9.52,16.67,19.04,16.67c7.42,0-0.36,0,7.06,0
		s14.84,0,22.26,0c8.89,0,16.45-6.12,18.66-14.36c5.16,3.49,10.31,6.98,15.48,10.44c0.69,0.46,1.56,0.79,2.33,0.76
		c1.87-0.08,3.02-1.78,3.02-4.24c0.01-6.7,0-13.39,0-20.09C93.86,49.51,93.87,42.82,93.86,36.12z M51.9,55.89
		c-0.17,0.38-0.5,0.77-0.87,0.98c-5.65,3.29-11.31,6.56-16.97,9.82c-1.36,0.78-2.82-0.1-2.83-1.67c-0.01-3.26,0-6.52,0-9.78
		c0-3.22,0-6.45,0-9.67c0-1.74,1.45-2.57,2.97-1.7c5.55,3.2,11.1,6.41,16.65,9.61C51.9,54.08,52.32,54.97,51.9,55.89z"/>
</g>
</svg>
